<svg xmlns="http://www.w3.org/2000/svg" viewBox="0 0 1980.3 256.4" enable-background="new 0 0 1980.3 256.4">
    <path fill="#4D4D59" d="M373.9 195.9v-178h67.9c32.5 0 54.3 12.3 54.3 46.3 0 16.1-5.3 29-20.1 36.4v.5c26.2 3.3 37.3 20.5 37.3 45.3 0 37.3-32.7 49.6-66.2 49.6h-73.2zm47.5-108.1h5.3c12.6 0 25.7-2.1 25.7-17.2 0-16.3-14.8-17.2-27.6-17.2h-3.4v34.4zm0 72.7h6.1c14.1 0 37.8.7 37.8-18.9 0-21.5-23.5-19.4-39-19.4h-4.8v38.3zM677.6 135.5c0 41.1-34.9 64.5-74.9 64.5-39.8 0-74.9-23.1-74.9-64.5s34.9-64.7 74.9-64.7 74.9 23.4 74.9 64.7zm-103.3 0c0 15.3 10.4 27.1 28.4 27.1s28.4-11.8 28.4-27.1c0-14.9-10.4-27.4-28.4-27.4s-28.4 12.5-28.4 27.4zM838.1 135.5c0 41.1-34.9 64.5-74.9 64.5-39.8 0-74.9-23.1-74.9-64.5s34.9-64.7 74.9-64.7c40 0 74.9 23.4 74.9 64.7zm-103.3 0c0 15.3 10.4 27.1 28.4 27.1s28.4-11.8 28.4-27.1c0-14.9-10.4-27.4-28.4-27.4s-28.4 12.5-28.4 27.4zM902.1 118.5l45.8-43.7h60.4l-62.3 56 66.2 65.2h-61.8l-48.2-49.3V196H858V0h44.1v118.5zM1071.6 28.3c0 13.2-11.2 24.1-24.7 24.1-13.6 0-24.7-10.9-24.7-24.1s11.2-24.1 24.7-24.1 24.7 10.9 24.7 24.1zm-2.7 167.6h-44.1V74.8h44.1v121.1zM1142.1 90.4h.5c10.2-14.6 22.5-19.6 39.8-19.6 33.5 0 46.8 20.5 46.8 50.3v74.8h-44.1v-59c0-11.6 1.9-31.9-19.9-31.9-17.9 0-23 13-23 28.1v62.8H1098V74.8h44.1v15.6zM1394.8 184.1c0 51.5-26.2 72.2-72 72.2-28.6 0-66.9-14.4-70.8-46.3h49.5c1.2 4.2 4.4 7.3 8.2 9.2 3.9 1.9 8.5 2.8 12.6 2.8 23.8 0 28.4-15.1 28.4-34.7v-5.7c-11.4 11.1-23 16.5-39.5 16.5-36.4 0-61.3-26.9-61.3-61.9 0-35.4 25.7-65.6 63.8-65.6 14.5 0 27.9 4.7 36.6 16.8h.5V74.8h44.1v109.3zm-99.4-49.5c0 15.3 10.4 27.1 28.4 27.1 17.9 0 28.4-11.8 28.4-27.1 0-14.9-10.4-27.4-28.4-27.4s-28.4 12.5-28.4 27.4z"/>
    <path fill="#218AC9" d="M1523.7 63.7c-8.7-7.1-19.9-11.8-31.5-11.8-8.7 0-20.4 5-20.4 14.9 0 10.4 12.8 14.4 21.1 17l12.1 3.5c25.5 7.3 45.1 19.8 45.1 48.6 0 17.7-4.4 35.9-18.9 47.9-14.3 11.8-33.5 16.8-51.9 16.8-23 0-45.6-7.6-64.2-20.3l20.4-37.3c11.9 10.2 25.9 18.4 42.2 18.4 11.2 0 23-5.4 23-17.9 0-13-18.7-17.5-28.9-20.3-29.8-8.3-49.5-15.8-49.5-50.3 0-36.1 26.4-59.7 63-59.7 18.4 0 41 5.7 57.2 14.6l-18.8 35.9zM1553.6 74.8h50.9l33.2 62.1 32.5-62.1h50.2l-99.6 181.5h-49.5l42.4-77-60.1-104.5zM1774.4 90.4h.5c10.2-14.6 22.5-19.6 39.8-19.6 33.5 0 46.8 20.5 46.8 50.3v74.8h-44.1v-59c0-11.6 1.9-31.9-19.9-31.9-17.9 0-23 13-23 28.1v62.8h-44.1V74.8h44.1v15.6zM1980.3 114.3c-6.5-4.7-14.3-8.5-22.8-8.5-17 0-30.3 12.7-30.3 29.5 0 17.5 12.8 29.7 31 29.7 7.8 0 16.2-3.1 22.1-8.3v36.4c-9.7 4.7-20.4 6.8-31 6.8-36.9 0-67.6-26.7-67.6-63.3 0-39 30.5-65.9 69.6-65.9 10.2 0 20.4 2.4 29.1 7.1v36.5zM150.4 197.2c-18.7 0-37.2-5.3-52.2-15-16.5-10.6-28.2-26.1-34-44.6-.6-1.9.3-3.9 2-4.8.6-.3 1.2-.4 1.8-.4 1.3 0 2.5.6 3.3 1.7 18.6 26.2 47.2 41.2 78.3 41.2 31.1 0 59.6-15 78.1-41.2.8-1.1 2-1.7 3.3-1.7.6 0 1.2.1 1.8.4 1.8.9 2.6 2.9 2.1 4.7-5.7 18.9-17.2 34.4-33.2 44.9-14.9 9.7-32.6 14.8-51.3 14.8zM4 83.2c-1.3 0-2.5-.6-3.3-1.7-1.1-1.6-.9-3.8.5-5.2l58.2-57.2c.8-.8 1.8-1.1 2.8-1.1 1 0 2 .4 2.8 1.1l58.2 57.2c1.4 1.4 1.6 3.6.5 5.2-.8 1.1-2 1.7-3.3 1.7-.6 0-1.2-.1-1.8-.4L62.2 55.1 5.8 82.8c-.6.3-1.2.4-1.8.4zM294.8 83.2c-.6 0-1.2-.1-1.8-.4l-56.4-27.7-56.4 27.7c-.6.3-1.2.4-1.8.4-1.3 0-2.5-.6-3.3-1.7-1.1-1.6-.9-3.8.5-5.2l58.2-57.2c.8-.8 1.8-1.1 2.8-1.1 1 0 2 .4 2.8 1.1l58.2 57.2c1.4 1.4 1.6 3.6.5 5.2-.8 1.1-2 1.7-3.3 1.7z"/>
</svg>
